<svg width="56" height="56" viewBox="0 0 56 56" fill="none" xmlns="http://www.w3.org/2000/svg">
<g clip-path="url(#clip0)">
<path d="M52.017 26.6264L32.2282 13.4338L32.4703 11.4966L3.09331 7.82422L2.41016 13.2898L25.3983 16.1634L22.058 39.5448C21.9171 40.5301 22.3193 41.5148 23.1093 42.1203C23.5982 42.495 24.1889 42.6884 24.7849 42.6884C25.1517 42.6884 25.5208 42.6151 25.8695 42.4657L51.5743 31.4493C52.5034 31.0513 53.1394 30.1762 53.2319 29.1696C53.3242 28.1633 52.8578 27.1869 52.017 26.6264ZM28.204 35.4725L30.5649 18.9449L44.7313 28.3891L28.204 35.4725Z" fill="#D6E2EF"/>
<path d="M52.0214 26.6275L32.2326 13.4349L32.4748 11.4977L28.4609 10.9961L30.5692 18.9462L44.7356 28.3904L28.4609 35.3653V41.358L51.5786 31.4504C52.5077 31.0524 53.1437 30.1773 53.2362 29.1707C53.3286 28.1644 52.8623 27.188 52.0214 26.6275Z" fill="#CDD8E5"/>
<path d="M43.8202 3.21094L45.2543 5.80444L48.1639 6.36673L46.1408 8.53225L46.5049 11.4732L43.8202 10.2179L41.1352 11.4732L41.4997 8.53225L39.4766 6.36673L42.3862 5.80444L43.8202 3.21094Z" fill="#CDD8E5"/>
<path d="M7.58984 23.4062L9.63012 27.096L13.7695 27.896L10.8913 30.9769L11.4094 35.1609L7.58984 33.3751L3.77014 35.1609L4.28825 30.9769L1.41016 27.896L5.54945 27.096L7.58984 23.4062Z" fill="#CDD8E5"/>
<path d="M43.8202 44.5234L45.2543 47.1168L48.1639 47.6792L46.1408 49.8448L46.5049 52.7857L43.8202 51.5304L41.1352 52.7857L41.4997 49.8448L39.4766 47.6792L42.3862 47.1168L43.8202 44.5234Z" fill="#CDD8E5"/>
<path d="M24.7856 45.4462C27.8277 45.4462 30.2938 42.98 30.2938 39.9379C30.2938 36.8958 27.8277 34.4297 24.7856 34.4297C21.7435 34.4297 19.2773 36.8958 19.2773 39.9379C19.2773 42.98 21.7435 45.4462 24.7856 45.4462Z" fill="#418CEF"/>
<path d="M5.50823 16.0672C8.55035 16.0672 11.0165 13.6011 11.0165 10.559C11.0165 7.5169 8.55035 5.05078 5.50823 5.05078C2.46612 5.05078 0 7.5169 0 10.559C0 13.6011 2.46612 16.0672 5.50823 16.0672Z" fill="#418CEF"/>
<path d="M28.4575 19.7391C31.4996 19.7391 33.9657 17.273 33.9657 14.2309C33.9657 11.1888 31.4996 8.72266 28.4575 8.72266C25.4153 8.72266 22.9492 11.1888 22.9492 14.2309C22.9492 17.273 25.4153 19.7391 28.4575 19.7391Z" fill="#418CEF"/>
<path d="M50.4926 34.4266C53.5347 34.4266 56.0008 31.9605 56.0008 28.9184C56.0008 25.8763 53.5347 23.4102 50.4926 23.4102C47.4505 23.4102 44.9844 25.8763 44.9844 28.9184C44.9844 31.9605 47.4505 34.4266 50.4926 34.4266Z" fill="#418CEF"/>
<path d="M24.7852 34.4297C27.8272 34.4297 30.2934 36.8961 30.2934 39.9379C30.2934 42.98 27.8272 45.4462 24.7852 45.4462" fill="#3983E4"/>
<path d="M5.50781 5.05078C8.54986 5.05078 11.016 7.51719 11.016 10.559C11.016 13.6011 8.54986 16.0672 5.50781 16.0672" fill="#3983E4"/>
<path d="M28.457 8.72266C31.4991 8.72266 33.9653 11.1891 33.9653 14.2309C33.9653 17.2729 31.4991 19.7391 28.457 19.7391" fill="#3983E4"/>
<path d="M50.4922 23.4141C53.5342 23.4141 56.0004 25.8805 56.0004 28.9223C56.0004 31.9644 53.5342 34.4305 50.4922 34.4305" fill="#3983E4"/>
</g>
<defs>
<clipPath id="clip0">
<rect width="56" height="56" fill="white"/>
</clipPath>
</defs>
</svg>
