<svg width="56" height="56" viewBox="0 0 56 56" fill="none" xmlns="http://www.w3.org/2000/svg">
<g clip-path="url(#clip0)">
<path d="M32.5979 4.94104C32.5979 2.21218 30.5314 0 27.9825 0C25.4336 0 23.3672 2.21218 23.3672 4.94104C23.3672 6.76954 24.2959 8.36507 25.6749 9.21949V13.1762H30.2902V9.2196C31.6693 8.36507 32.5979 6.76964 32.5979 4.94104Z" fill="#418CEF"/>
<path d="M27.9844 0V13.1763H30.292V9.2196C31.6711 8.36507 32.5997 6.76986 32.5997 4.94115C32.5997 2.21218 30.5332 0 27.9844 0Z" fill="#3983E4"/>
<path d="M47.985 55.998C43.3193 55.998 39.5234 51.9342 39.5234 46.9393V35.4102H44.1388V46.9394C44.1388 49.2099 45.8641 51.057 47.9849 51.057V55.998H47.985Z" fill="#C4CDD9"/>
<path d="M7.98438 56.0019C12.6501 56.0019 16.446 51.9381 16.446 46.9432V35.4141H11.8305V46.9433C11.8305 49.2138 10.1052 51.0608 7.98438 51.0608V56.0019V56.0019Z" fill="#C6D9EE"/>
<path d="M25.6778 42.8242H21.0625V56.0005H25.6778V42.8242Z" fill="#C6D9EE"/>
<path d="M34.9083 42.8242H30.293V56.0005H34.9083V42.8242Z" fill="#C4CDD9"/>
<path d="M44.1398 46.1189V28.8251C44.1398 19.274 36.9074 11.5312 27.9859 11.5312C19.0644 11.5312 11.832 19.274 11.832 28.8251V46.1189H44.1398Z" fill="#D6E2EF"/>
<path d="M44.1382 46.1189V28.8251C44.1382 19.274 36.9059 11.5312 27.9844 11.5312C27.9844 24.8073 27.9844 46.1188 27.9844 46.1188H44.1382V46.1189Z" fill="#CDD8E5"/>
<path d="M16.4465 36.2374C20.2701 36.2374 23.3696 32.9191 23.3696 28.8257C23.3696 24.7324 20.2701 21.4141 16.4465 21.4141C12.623 21.4141 9.52344 24.7324 9.52344 28.8257C9.52344 32.9191 12.623 36.2374 16.4465 36.2374Z" fill="#CDD8E5"/>
<path d="M16.4444 31.2926C17.7189 31.2926 18.7521 30.1865 18.7521 28.8221C18.7521 27.4576 17.7189 26.3516 16.4444 26.3516C15.1699 26.3516 14.1367 27.4576 14.1367 28.8221C14.1367 30.1865 15.1699 31.2926 16.4444 31.2926Z" fill="#3C5D76"/>
<path d="M39.5247 36.2335C43.3482 36.2335 46.4478 32.9152 46.4478 28.8218C46.4478 24.7285 43.3482 21.4102 39.5247 21.4102C35.7011 21.4102 32.6016 24.7285 32.6016 28.8218C32.6016 32.9152 35.7011 36.2335 39.5247 36.2335Z" fill="#D6E2EF"/>
<path d="M39.5225 31.2926C40.797 31.2926 41.8302 30.1865 41.8302 28.8221C41.8302 27.4576 40.797 26.3516 39.5225 26.3516C38.248 26.3516 37.2148 27.4576 37.2148 28.8221C37.2148 30.1865 38.248 31.2926 39.5225 31.2926Z" fill="#3C5D76"/>
<path d="M23.3672 34.5859C23.3672 37.3147 25.4336 39.527 27.9825 39.527C30.5314 39.527 32.5979 37.3147 32.5979 34.5859H23.3672Z" fill="#3C5D76"/>
<path d="M27.9844 34.5859V39.527C30.5332 39.527 32.5997 37.3147 32.5997 34.5859H27.9844Z" fill="#3E5A70"/>
</g>
<defs>
<clipPath id="clip0">
<rect width="56" height="56" fill="white"/>
</clipPath>
</defs>
</svg>
