<svg width="148" height="44" viewBox="0 0 148 44" fill="none" xmlns="http://www.w3.org/2000/svg" class="styled__StyledGooglePlay-sc-2zfn2z-1 wwYWA"><path d="M143.375 44H4.625C2.08125 44 0 42.02 0 39.6V4.4C0 1.98 2.08125 0 4.625 0H143.375C145.919 0 148 1.98 148 4.4V39.6C148 42.02 145.919 44 143.375 44Z" fill="#418CEF"></path><path fill-rule="evenodd" clip-rule="evenodd" d="M82.2108 37.2898C81.6327 36.8498 81.1702 36.0798 80.9389 35.6398L82.789 34.8698C82.9046 35.0898 83.1358 35.4198 83.3671 35.7498C83.8296 36.1898 84.5233 36.6298 85.2171 36.6298C85.9108 36.6298 86.7202 36.2998 87.1827 35.7498C87.5296 35.1998 87.7608 34.6498 87.7608 33.8798V33.2198C86.3733 34.8698 83.4827 34.6498 81.8639 32.8898C80.1296 31.1298 80.1296 28.1598 81.8639 26.3998C83.5983 24.7498 86.1421 24.5298 87.6452 26.0698V25.2998H89.6108V33.5498C89.6108 35.6398 88.8014 36.8498 87.7608 37.6198C87.0671 38.1698 86.0265 38.3898 85.1015 38.3898C84.0608 38.2798 83.0202 37.9498 82.2108 37.2898ZM130.658 37.7298L132.623 33.3298L129.155 25.7398H131.12L133.548 31.1298L135.976 25.7398H137.942L132.623 37.7298H130.658ZM121.292 33.5498C120.714 32.9998 120.483 32.2298 120.483 31.4598C120.483 30.7998 120.714 30.1398 121.176 29.6998C121.986 28.9298 123.142 28.5998 124.414 28.5998C125.223 28.5998 125.917 28.7098 126.495 29.0398C126.495 27.7198 125.339 27.1698 124.414 27.1698C123.605 27.1698 122.795 27.6098 122.448 28.3798L120.714 27.7198C121.061 26.9498 121.986 25.5198 124.298 25.5198C125.455 25.5198 126.611 25.8498 127.305 26.6198C127.998 27.3898 128.23 28.2698 128.23 29.4798V34.0998H126.264V33.3298C126.033 33.6598 125.57 33.8798 125.223 34.0998C124.761 34.3198 124.183 34.4298 123.605 34.4298C122.911 34.3198 121.87 34.0998 121.292 33.5498ZM59.664 29.5898C59.664 27.3898 61.3983 24.9698 64.5202 24.9698C67.5265 24.9698 69.3764 27.3898 69.3764 29.5898C69.3764 31.7898 67.6421 34.2098 64.5202 34.2098C61.3983 34.2098 59.664 31.7898 59.664 29.5898ZM70.0702 29.5898C70.0702 27.3898 71.8046 24.9698 74.9265 24.9698C77.9327 24.9698 79.7827 27.3898 79.7827 29.5898C79.7827 31.7898 78.0483 34.2098 74.9265 34.2098C71.9202 34.2098 70.0702 31.7898 70.0702 29.5898ZM46.5983 32.0098C43.7077 29.2598 43.8233 24.7498 46.7139 21.8898C48.2171 20.4598 50.0671 19.7998 52.0327 19.7998C53.8827 19.7998 55.7327 20.4598 57.1202 21.7798L55.7327 23.2098C53.6514 21.2298 50.2983 21.3398 48.3327 23.3198C46.2515 25.4098 46.2515 28.5998 48.3327 30.6898C50.414 32.7798 53.8827 32.8898 55.9639 30.7998C56.6577 30.1398 56.889 29.2598 57.0046 28.3798H52.1483V26.3998H58.9702C59.0858 26.8398 59.0858 27.3898 59.0858 27.9398C59.0858 29.5898 58.3921 31.2398 57.2358 32.3398C55.964 33.5498 54.1139 34.2098 52.2639 34.2098C50.1827 34.0998 48.1015 33.4398 46.5983 32.0098ZM95.5077 32.7798C93.7733 31.0198 93.7733 28.0498 95.5077 26.1798C97.2421 24.4198 100.133 24.4198 101.751 26.1798C102.33 26.7298 102.676 27.4998 103.023 28.2698L96.664 30.7998C97.0108 31.5698 97.8202 32.2298 98.9765 32.2298C100.017 32.2298 100.711 31.8998 101.405 30.9098L103.139 32.0098C102.908 32.2298 102.676 32.4498 102.561 32.6698C100.595 34.5398 97.2421 34.5398 95.5077 32.7798ZM107.533 34.0998V21.8898H111.695C114.123 21.8898 116.089 23.5398 116.089 25.5198C116.089 27.4998 114.355 29.1498 112.158 29.1498H109.614V33.9898H107.533V34.0998ZM117.245 34.0998V21.8898H119.211V34.0998H117.245ZM91.1139 33.8798V20.2398H93.1952V33.8798H91.1139ZM126.38 30.4698C125.917 30.1398 125.223 30.0298 124.53 30.0298C123.142 30.0298 122.333 30.6898 122.333 31.4598C122.333 32.2298 123.142 32.6698 123.951 32.6698C125.108 32.6698 126.38 31.7898 126.38 30.4698ZM67.1796 29.5898C67.1796 28.2698 66.2546 26.8398 64.5202 26.8398C62.7858 26.8398 61.8608 28.2698 61.8608 29.5898C61.8608 30.9098 62.7858 32.3398 64.5202 32.3398C66.139 32.3398 67.1796 30.9098 67.1796 29.5898ZM77.5858 29.5898C77.5858 28.2698 76.6608 26.8398 74.9265 26.8398C73.1921 26.8398 72.2671 28.2698 72.2671 29.5898C72.2671 30.9098 73.1921 32.3398 74.9265 32.3398C76.6608 32.3398 77.5858 30.9098 77.5858 29.5898ZM87.8764 30.3598C87.8764 30.2498 87.8765 30.1398 87.9921 30.0298C87.9921 29.9198 87.9921 29.6998 87.9921 29.5898C87.9921 29.4798 87.9921 29.2598 87.9921 29.1498V29.0398C87.9921 28.9298 87.8764 28.7098 87.8764 28.5998C87.5296 27.4998 86.4889 26.7298 85.4483 26.7298C84.0608 26.7298 82.9046 28.0498 82.9046 29.4798C82.9046 31.0198 84.0608 32.2298 85.5639 32.2298C86.4889 32.3398 87.4139 31.5698 87.8764 30.3598ZM96.3171 29.3698L100.595 27.6098C100.133 26.8398 99.4389 26.6198 98.8608 26.6198C97.1264 26.7298 96.0858 28.4898 96.3171 29.3698ZM114.008 25.6298C114.008 24.5298 113.083 23.7598 111.811 23.7598H109.498V27.6098H111.926C113.083 27.6098 114.008 26.7298 114.008 25.6298Z" fill="white"></path><path d="M44.9771 11.1092C44.9771 9.12965 46.4802 7.91992 48.3302 7.91992C49.6021 7.91992 50.4114 8.46979 50.9896 9.23962L50.0646 9.78949C49.7177 9.34959 49.1396 9.01967 48.3302 9.01967C47.0583 9.01967 46.1333 9.89947 46.1333 11.2192C46.1333 12.5389 47.0583 13.4187 48.3302 13.4187C49.0239 13.4187 49.6021 13.0887 49.8333 12.8688V11.879H47.9833V10.8892H51.1052V13.1987C50.5271 13.8586 49.6021 14.2985 48.4458 14.2985C46.4802 14.2985 44.9771 12.9788 44.9771 11.1092Z" fill="white"></path><path d="M52.4907 14.1889V8.03027H56.8845V9.02005H53.5314V10.5597H56.7689V11.5495H53.5314V13.3091H56.8845V14.2988L52.4907 14.1889Z" fill="white"></path><path d="M60.1253 14.1889V9.02005H58.1597V8.03027H63.2472V9.02005H61.2815V14.1889H60.1253Z" fill="white"></path><path d="M67.1787 14.1889V8.03027H68.335V14.1889H67.1787Z" fill="white"></path><path d="M71.4588 14.1889V9.02005H69.4932V8.03027H74.5807V9.02005H72.615V14.1889H71.4588Z" fill="white"></path><path d="M78.2773 11.1092C78.2773 9.23962 79.6649 7.91992 81.6305 7.91992C83.5961 7.91992 84.9836 9.23962 84.9836 11.1092C84.9836 12.9788 83.5961 14.2985 81.6305 14.2985C79.6649 14.2985 78.2773 12.8688 78.2773 11.1092ZM83.7117 11.1092C83.7117 9.78949 82.9023 8.9097 81.5148 8.9097C80.243 8.9097 79.318 9.89947 79.318 11.1092C79.318 12.4289 80.1273 13.3087 81.5148 13.3087C82.9023 13.3087 83.7117 12.3189 83.7117 11.1092Z" fill="white"></path><path d="M90.7682 14.1889L87.415 9.78987V14.1889H86.2588V8.03027H87.415L90.7682 12.3193V8.03027H91.9244V14.1889H90.7682Z" fill="white"></path><path d="M31.4606 20.325L29.1071 18.9648L26.271 22.4478L29.1611 26.0028L31.4595 24.6753C32.4191 24.1218 32.9456 23.3467 32.9456 22.4985C32.9456 21.6502 32.4202 20.8796 31.4606 20.325Z" fill="white"></path><path d="M16.2122 33.0202L24.8196 22.4497L16.3214 11.994C16.2944 11.9928 16.2662 11.9805 16.2392 11.9805C14.9309 11.9805 14.0522 13.0436 14.0522 14.6276V30.3776C14.0545 31.947 14.9219 33.0045 16.2122 33.0202Z" fill="white"></path><path d="M28.1181 18.3982L18.4341 12.8047L25.5463 21.5561L28.1181 18.3982Z" fill="white"></path><path d="M25.5452 23.3389L18.2451 32.3062L28.1732 26.5721L25.5452 23.3389Z" fill="white"></path></svg>