<svg width="40" height="40" viewBox="0 0 40 40" fill="none" xmlns="http://www.w3.org/2000/svg">
<path d="M6.66667 29.9993C10.3486 29.9993 13.3333 27.0146 13.3333 23.3327C13.3333 19.6508 10.3486 16.666 6.66667 16.666C2.98477 16.666 0 19.6508 0 23.3327C0 27.0146 2.98477 29.9993 6.66667 29.9993Z" fill="#418CEF"/>
<path d="M38.3333 18.332H28.3333C27.4128 18.332 26.6666 19.0782 26.6666 19.9987V29.9987C26.6666 30.9192 27.4128 31.6654 28.3333 31.6654H38.3333C39.2538 31.6654 40 30.9192 40 29.9987V19.9987C40 19.0782 39.2538 18.332 38.3333 18.332Z" fill="#418CEF"/>
<path d="M16.0417 11.6667H26.0417C26.3366 11.6667 26.6263 11.5884 26.8811 11.4399C27.1359 11.2913 27.3467 11.0779 27.492 10.8212C27.6373 10.5645 27.7119 10.2739 27.7082 9.979C27.7045 9.68408 27.6226 9.39544 27.4708 9.14253L22.4708 0.809193C22.3228 0.562394 22.1133 0.358146 21.8628 0.216339C21.6124 0.0745323 21.3295 0 21.0417 0C20.7539 0 20.4709 0.0745323 20.2205 0.216339C19.97 0.358146 19.7606 0.562394 19.6125 0.809193L14.6125 9.14253C14.4608 9.39544 14.3788 9.68408 14.3751 9.979C14.3714 10.2739 14.446 10.5645 14.5913 10.8212C14.7366 11.0779 14.9475 11.2913 15.2023 11.4399C15.4571 11.5884 15.7467 11.6667 16.0417 11.6667Z" fill="#418CEF"/>
<path d="M33.4392 13.333H31.6667V16.6664H36.6667C37.0164 16.6664 37.3574 16.5563 37.6411 16.3518C37.9249 16.1472 38.1371 15.8586 38.2477 15.5268L39.9144 10.5268L36.7523 9.47262L36.1431 11.3001C34.5293 8.30591 32.1142 5.81985 29.1679 4.12012L27.4987 7.00533C30.0593 8.4829 32.126 10.6844 33.4392 13.333Z" fill="#418CEF"/>
<path d="M20 35.0005C18.0244 35.0006 16.0681 34.6112 14.2431 33.8547L16.2912 33.2694L15.3746 30.0645L9.54124 31.7311C9.12982 31.8487 8.77938 32.1199 8.56247 32.4887C8.34556 32.8576 8.2788 33.2957 8.37603 33.7124L9.83436 39.9624L13.0806 39.2049L12.5039 36.7338C15.1514 37.918 18.0418 38.4579 20.9382 38.3095C23.8346 38.161 26.6546 37.3283 29.1671 35.8797L27.4979 32.9944C25.218 34.3097 22.6321 35.0016 20 35.0005Z" fill="#418CEF"/>
<path d="M2.50624 14.4987L5.68749 15.4987C6.49569 12.9237 7.9859 10.6155 9.99999 8.81911V11.6654H13.3333V4.9987C13.3333 4.55667 13.1577 4.13275 12.8452 3.82019C12.5326 3.50763 12.1087 3.33203 11.6667 3.33203H4.99999V6.66536H7.41103C5.1321 8.81323 3.44318 11.5106 2.50624 14.4987Z" fill="#418CEF"/>
</svg>