<svg width="148" height="44" viewBox="0 0 148 44" fill="none" xmlns="http://www.w3.org/2000/svg" class="styled__StyledAppStore-sc-2zfn2z-0 gIaAmy"><path d="M143.375 44H4.625C2.08125 44 0 42.02 0 39.6V4.4C0 1.98 2.08125 0 4.625 0H143.375C145.919 0 148 1.98 148 4.4V39.6C148 42.02 145.919 44 143.375 44Z" fill="#418CEF"></path><path d="M31.2197 21.7799C31.2197 18.3699 34.2259 16.7199 34.3416 16.6099C32.6072 14.2999 30.0634 13.9699 29.1384 13.8599C26.9416 13.6399 24.7447 15.0699 23.704 15.0699C22.5478 15.0699 20.8134 13.8599 18.9634 13.8599C16.5353 13.8599 14.3384 15.1799 13.0665 17.2699C10.5228 21.4499 12.3728 27.6099 14.8009 31.0199C16.0728 32.6699 17.4603 34.5399 19.3103 34.4299C21.1603 34.3199 21.854 33.3299 24.0509 33.3299C26.2478 33.3299 26.8259 34.4299 28.7915 34.4299C30.7572 34.4299 32.0291 32.7799 33.1853 31.1299C34.5728 29.2599 35.1509 27.3899 35.1509 27.2799C35.0353 27.1699 31.2197 25.8499 31.2197 21.7799Z" fill="white"></path><path d="M27.6345 11.6603C28.5595 10.4503 29.2533 8.91025 29.1377 7.26025C27.7502 7.37025 25.9002 8.14025 24.9752 9.35025C24.0502 10.3403 23.2408 11.9903 23.472 13.5303C24.9752 13.6403 26.5939 12.7603 27.6345 11.6603Z" fill="white"></path><path d="M57.5813 34.2095H55.0375L53.65 30.0295H48.7938L47.5219 34.2095H45.0938L49.95 20.0195H52.9563L57.5813 34.2095ZM53.1875 28.2695L51.9156 24.5295C51.8 24.1995 51.5688 23.2095 51.1063 21.8895C50.9906 22.4395 50.7594 23.4295 50.4125 24.5295L49.1406 28.2695H53.1875Z" fill="white"></path><path d="M69.9551 29.0396C69.9551 30.7996 69.4926 32.1196 68.452 33.2196C67.527 34.0996 66.4863 34.5396 65.0988 34.5396C63.7113 34.5396 62.6707 34.0996 62.0926 33.1096V38.4996H59.6645V27.4996C59.6645 26.3996 59.6645 25.2996 59.5488 24.0896H61.6301L61.7457 25.7396C62.5551 24.5296 63.7113 23.8696 65.3301 23.8696C66.602 23.8696 67.6426 24.3096 68.452 25.2996C69.4926 26.1796 69.9551 27.3896 69.9551 29.0396ZM67.527 29.0396C67.527 28.0496 67.2957 27.1696 66.8332 26.6196C66.3707 25.9596 65.677 25.6296 64.752 25.6296C64.1738 25.6296 63.5957 25.8496 63.1332 26.1796C62.6707 26.5096 62.3238 27.0596 62.2082 27.6096C62.0926 27.9396 62.0926 28.1596 62.0926 28.2696V30.0296C62.0926 30.7996 62.3238 31.3496 62.7863 31.8996C63.2488 32.4496 63.9426 32.6696 64.6363 32.6696C65.5613 32.6696 66.2551 32.3396 66.7176 31.6796C67.2957 31.0196 67.527 30.1396 67.527 29.0396Z" fill="white"></path><path d="M82.3306 29.0396C82.3306 30.7996 81.8681 32.1196 80.8274 33.2196C79.9024 34.0996 78.8618 34.5396 77.4743 34.5396C76.0868 34.5396 75.0462 34.0996 74.4681 33.1096V38.4996H72.0399V27.4996C72.0399 26.3996 72.0399 25.2996 71.9243 24.0896H74.0056L74.1212 25.7396C74.9306 24.5296 76.0868 23.8696 77.7056 23.8696C78.9774 23.8696 80.0181 24.3096 80.8274 25.2996C81.8681 26.1796 82.3306 27.3896 82.3306 29.0396ZM79.9024 29.0396C79.9024 28.0496 79.6712 27.1696 79.2087 26.6196C78.7462 25.9596 78.0524 25.6296 77.1274 25.6296C76.5493 25.6296 75.9712 25.8496 75.5087 26.1796C75.0462 26.5096 74.6993 27.0596 74.5837 27.6096C74.4681 27.9396 74.4681 28.1596 74.4681 28.2696V30.0296C74.4681 30.7996 74.6993 31.3496 75.1618 31.8996C75.6243 32.4496 76.3181 32.6696 77.0118 32.6696C77.9368 32.6696 78.6306 32.3396 79.0931 31.6796C79.6712 31.0196 79.9024 30.1396 79.9024 29.0396Z" fill="white"></path><path d="M96.2003 30.2502C96.2003 31.4602 95.7378 32.4502 94.9284 33.2202C94.0034 34.1002 92.6159 34.4302 90.8815 34.4302C89.2628 34.4302 87.9909 34.1002 87.0659 33.5502L87.644 31.6802C88.6847 32.2302 89.8409 32.5602 91.1128 32.5602C92.0378 32.5602 92.7315 32.3402 93.194 32.0102C93.6565 31.5702 93.8878 31.1302 93.8878 30.4702C93.8878 29.9202 93.6565 29.3702 93.3097 29.0402C92.8472 28.6002 92.1534 28.2702 91.2284 27.9402C88.569 27.0602 87.2972 25.6302 87.2972 23.8702C87.2972 22.6602 87.7597 21.7802 88.6847 21.0102C89.6097 20.2402 90.7659 19.9102 92.3847 19.9102C93.7722 19.9102 94.8128 20.1302 95.7378 20.5702L95.1597 22.4402C94.3503 22.0002 93.4253 21.7802 92.269 21.7802C91.4597 21.7802 90.7659 22.0002 90.3034 22.3302C89.9565 22.6602 89.7253 23.1002 89.7253 23.6502C89.7253 24.2002 89.9565 24.6402 90.419 25.0802C90.7659 25.4102 91.5753 25.7402 92.6159 26.1802C93.8878 26.6202 94.8128 27.2802 95.5065 27.9402C95.8534 28.4902 96.2003 29.2602 96.2003 30.2502Z" fill="white"></path><path d="M104.059 25.7402H101.4V30.6902C101.4 31.9002 101.862 32.5602 102.787 32.5602C103.25 32.5602 103.596 32.5602 103.828 32.4502L103.943 34.2102C103.481 34.4302 102.903 34.4302 102.093 34.4302C101.168 34.4302 100.359 34.2102 99.8964 33.6602C99.3183 33.1102 99.087 32.2302 99.087 30.9102V25.7402H97.4683V23.9802H99.087V22.1102L101.4 21.4502V23.9802H104.059V25.7402Z" fill="white"></path><path d="M115.972 29.0407C115.972 30.5807 115.509 31.9007 114.584 32.8907C113.543 33.8807 112.272 34.4307 110.653 34.4307C109.034 34.4307 107.762 33.8807 106.837 32.8907C105.912 31.9007 105.45 30.6907 105.45 29.1507C105.45 27.6107 105.912 26.2907 106.953 25.3007C107.878 24.3107 109.265 23.7607 110.884 23.7607C112.503 23.7607 113.775 24.3107 114.7 25.3007C115.509 26.2907 115.972 27.5007 115.972 29.0407ZM113.428 29.1507C113.428 28.1607 113.197 27.3907 112.734 26.7307C112.272 25.9607 111.462 25.5207 110.537 25.5207C109.612 25.5207 108.803 25.9607 108.34 26.7307C107.878 27.3907 107.647 28.2707 107.647 29.1507C107.647 30.1407 107.878 30.9107 108.34 31.5707C108.803 32.3407 109.612 32.7807 110.537 32.7807C111.462 32.7807 112.156 32.3407 112.734 31.5707C113.197 30.9107 113.428 30.0307 113.428 29.1507Z" fill="white"></path><path d="M123.72 25.9599C123.489 25.9599 123.258 25.8499 122.911 25.8499C122.101 25.8499 121.408 26.1799 120.945 26.7299C120.598 27.2799 120.367 27.9399 120.367 28.7099V34.0999H117.939V27.0599C117.939 25.8499 117.939 24.8599 117.823 23.8699H119.904L120.02 25.8499H120.136C120.367 25.1899 120.829 24.6399 121.292 24.1999C121.87 23.8699 122.448 23.6499 123.026 23.6499C123.258 23.6499 123.489 23.6499 123.604 23.6499V25.9599H123.72Z" fill="white"></path><path d="M134.358 28.6007C134.358 29.0407 134.358 29.3707 134.242 29.5907H127.073C127.073 30.5807 127.42 31.3507 128.114 31.9007C128.692 32.3407 129.501 32.6707 130.426 32.6707C131.467 32.6707 132.508 32.5607 133.317 32.2307L133.664 33.7707C132.623 34.2107 131.467 34.4307 130.079 34.4307C128.461 34.4307 127.073 33.9907 126.148 33.0007C125.223 32.1207 124.761 30.8007 124.761 29.2607C124.761 27.7207 125.223 26.4007 126.033 25.4107C126.958 24.3107 128.229 23.7607 129.848 23.7607C131.351 23.7607 132.623 24.3107 133.317 25.4107C134.126 26.2907 134.358 27.3907 134.358 28.6007ZM132.161 28.0507C132.161 27.3907 132.045 26.8407 131.698 26.2907C131.236 25.6307 130.658 25.3007 129.848 25.3007C129.039 25.3007 128.461 25.6307 127.998 26.1807C127.651 26.6207 127.42 27.2807 127.304 27.9407H132.161V28.0507Z" fill="white"></path><path d="M52.4993 11.3308C52.4993 12.5408 52.1524 13.5308 51.3431 14.1908C50.6493 14.7408 49.6087 15.0708 48.2212 15.0708C47.5274 15.0708 46.9493 15.0708 46.4868 14.9608V8.14076C47.0649 8.03076 47.7587 8.03076 48.5681 8.03076C49.8399 8.03076 50.7649 8.25076 51.4587 8.80076C52.0368 9.35076 52.4993 10.2308 52.4993 11.3308ZM51.2274 11.3308C51.2274 10.5608 50.9962 9.90076 50.5337 9.46076C50.0712 9.02076 49.3774 8.80076 48.5681 8.80076C48.2212 8.80076 47.8743 8.80076 47.6431 8.91076V14.0808C47.7587 14.0808 48.1056 14.0808 48.4524 14.0808C49.3774 14.0808 50.0712 13.8608 50.5337 13.4208C50.9962 12.9808 51.2274 12.2108 51.2274 11.3308Z" fill="white"></path><path d="M58.9688 12.4291C58.9688 13.1991 58.7375 13.8591 58.275 14.2991C57.8125 14.8491 57.1188 15.0691 56.3094 15.0691C55.5 15.0691 54.9219 14.8491 54.4594 14.2991C53.9969 13.8591 53.7656 13.1991 53.7656 12.4291C53.7656 11.6591 53.9969 10.9991 54.4594 10.5591C54.9219 10.0091 55.6156 9.78906 56.425 9.78906C57.2344 9.78906 57.8125 10.0091 58.275 10.5591C58.7375 10.9991 58.9688 11.6591 58.9688 12.4291ZM57.8125 12.4291C57.8125 11.9891 57.6969 11.5491 57.4656 11.2191C57.2344 10.7791 56.8875 10.6691 56.425 10.6691C55.9625 10.6691 55.6156 10.8891 55.3844 11.2191C55.1531 11.5491 55.0375 11.9891 55.0375 12.4291C55.0375 12.8691 55.1531 13.3091 55.3844 13.6391C55.6156 14.0791 55.9625 14.1891 56.425 14.1891C56.8875 14.1891 57.2344 13.9691 57.4656 13.5291C57.6969 13.3091 57.8125 12.8691 57.8125 12.4291Z" fill="white"></path><path d="M67.8719 9.8999L66.2531 14.9599H65.2125L64.5188 12.7599C64.2875 12.2099 64.1719 11.6599 64.0563 11.1099C63.9406 11.6599 63.825 12.2099 63.5938 12.7599L62.9 14.9599H61.8594L60.125 9.8999H61.2813L61.8594 12.3199C61.975 12.8699 62.0906 13.4199 62.2063 13.9699C62.3219 13.5299 62.4375 12.9799 62.6688 12.3199L63.3625 9.8999H64.2875L64.9813 12.2099C65.2125 12.7599 65.3281 13.3099 65.4438 13.8599C65.5594 13.3099 65.675 12.7599 65.7906 12.2099L66.4844 9.8999H67.8719Z" fill="white"></path><path d="M73.8844 14.9582H72.7281V12.0982C72.7281 11.2182 72.3813 10.7782 71.6875 10.7782C71.3406 10.7782 71.1094 10.8882 70.8781 11.1082C70.6469 11.3282 70.5313 11.6582 70.5313 11.9882V14.9582H69.375V11.3282C69.375 10.8882 69.375 10.4482 69.375 9.89822H70.4156V10.6682C70.5313 10.4482 70.7625 10.2282 70.9938 10.0082C71.3406 9.78822 71.6875 9.67822 72.0344 9.67822C72.4969 9.67822 72.9594 9.78822 73.3063 10.1182C73.7688 10.4482 73.8844 10.9982 73.8844 11.7682V14.9582Z" fill="white"></path><path d="M77.1245 14.9598H75.9692V7.58984H77.1245V14.9598Z" fill="white"></path><path d="M84.0591 12.4291C84.0591 13.1991 83.8278 13.8591 83.3653 14.2991C82.9028 14.8491 82.2091 15.0691 81.3997 15.0691C80.5903 15.0691 80.0122 14.8491 79.5497 14.2991C79.0872 13.8591 78.856 13.1991 78.856 12.4291C78.856 11.6591 79.0872 10.9991 79.5497 10.5591C80.0122 10.1191 80.706 9.78906 81.5153 9.78906C82.3247 9.78906 82.9028 10.0091 83.3653 10.5591C83.8278 10.9991 84.0591 11.6591 84.0591 12.4291ZM82.9028 12.4291C82.9028 11.9891 82.7872 11.5491 82.556 11.2191C82.3247 10.7791 81.9778 10.6691 81.5153 10.6691C81.0528 10.6691 80.706 10.8891 80.4747 11.2191C80.2435 11.5491 80.1278 11.9891 80.1278 12.4291C80.1278 12.8691 80.2435 13.3091 80.4747 13.6391C80.706 14.0791 81.0528 14.1891 81.5153 14.1891C81.9778 14.1891 82.3247 13.9691 82.556 13.5291C82.7872 13.3091 82.9028 12.8691 82.9028 12.4291Z" fill="white"></path><path d="M89.7264 14.9591H88.6857L88.5701 14.4091C88.2232 14.8491 87.6451 15.0691 87.067 15.0691C86.6045 15.0691 86.142 14.9591 85.9107 14.6291C85.6795 14.2991 85.4482 13.9691 85.4482 13.6391C85.4482 12.9791 85.6795 12.5391 86.2576 12.2091C86.8357 11.8791 87.5295 11.7691 88.5701 11.7691V11.6591C88.5701 10.9991 88.2232 10.6691 87.5295 10.6691C86.9514 10.6691 86.6045 10.7791 86.142 10.9991L85.9107 10.2291C86.3732 9.89906 86.9514 9.78906 87.7607 9.78906C89.1482 9.78906 89.842 10.4491 89.842 11.8791V13.7491C89.7264 14.2991 89.7264 14.6291 89.7264 14.9591ZM88.5701 13.1991V12.4291C87.2982 12.4291 86.6045 12.7591 86.6045 13.4191C86.6045 13.6391 86.7201 13.8591 86.8357 13.9691C86.9514 14.0791 87.1826 14.1891 87.4139 14.1891C87.6451 14.1891 87.8764 14.0791 88.1076 13.9691C88.3389 13.8591 88.4545 13.6391 88.5701 13.4191C88.5701 13.4191 88.5701 13.3091 88.5701 13.1991Z" fill="white"></path><path d="M96.4318 14.9602H95.3912V14.1902C95.0443 14.8502 94.4662 15.0702 93.6568 15.0702C92.9631 15.0702 92.5006 14.8502 92.0381 14.4102C91.5756 13.9702 91.46 13.3102 91.46 12.5402C91.46 11.7702 91.6912 11.1102 92.1537 10.5602C92.6162 10.1202 93.1943 9.9002 93.7725 9.9002C94.4662 9.9002 94.9287 10.1202 95.2756 10.5602V7.7002H96.4318V13.6402C96.4318 14.0802 96.4318 14.5202 96.4318 14.9602ZM95.2756 12.8702V11.9902C95.2756 11.8802 95.2756 11.7702 95.2756 11.6602C95.16 11.4402 95.0443 11.2202 94.8131 11.0002C94.5818 10.7802 94.3506 10.7802 94.0037 10.7802C93.5412 10.7802 93.1943 11.0002 92.9631 11.3302C92.7318 11.6602 92.6162 12.1002 92.6162 12.6502C92.6162 13.2002 92.7318 13.5302 92.9631 13.8602C93.1943 14.1902 93.5412 14.4102 94.0037 14.4102C94.3506 14.4102 94.6975 14.3002 94.9287 13.9702C95.16 13.5302 95.2756 13.2002 95.2756 12.8702Z" fill="white"></path><path d="M106.491 12.4291C106.491 13.1991 106.26 13.8591 105.797 14.2991C105.335 14.8491 104.641 15.0691 103.832 15.0691C103.022 15.0691 102.444 14.8491 101.982 14.2991C101.519 13.8591 101.288 13.1991 101.288 12.4291C101.288 11.6591 101.519 10.9991 101.982 10.5591C102.444 10.0091 103.138 9.78906 103.947 9.78906C104.757 9.78906 105.335 10.0091 105.797 10.5591C106.26 10.9991 106.491 11.6591 106.491 12.4291ZM105.219 12.4291C105.219 11.9891 105.104 11.5491 104.872 11.2191C104.641 10.7791 104.294 10.6691 103.832 10.6691C103.369 10.6691 103.022 10.8891 102.791 11.2191C102.56 11.5491 102.444 11.9891 102.444 12.4291C102.444 12.8691 102.56 13.3091 102.791 13.6391C103.022 14.0791 103.369 14.1891 103.832 14.1891C104.294 14.1891 104.641 13.9691 104.872 13.5291C105.104 13.3091 105.219 12.8691 105.219 12.4291Z" fill="white"></path><path d="M112.852 14.9582H111.695V12.0982C111.695 11.2182 111.349 10.7782 110.655 10.7782C110.308 10.7782 110.077 10.8882 109.845 11.1082C109.614 11.3282 109.499 11.6582 109.499 11.9882V14.9582H108.342V11.3282C108.342 10.8882 108.342 10.4482 108.342 9.89822H109.383V10.6682C109.499 10.4482 109.73 10.2282 109.961 10.0082C110.308 9.78822 110.655 9.67822 111.002 9.67822C111.464 9.67822 111.927 9.78822 112.274 10.1182C112.736 10.4482 112.852 10.9982 112.852 11.7682V14.9582Z" fill="white"></path><path d="M120.712 10.7799H119.44V13.1999C119.44 13.8599 119.672 14.0799 120.134 14.0799C120.365 14.0799 120.481 14.0799 120.712 14.0799V14.9599C120.481 15.0699 120.134 15.0699 119.787 15.0699C119.325 15.0699 118.978 14.9599 118.747 14.6299C118.515 14.4099 118.4 13.8599 118.4 13.3099V10.7799H117.59V9.89994H118.4V9.01994L119.556 8.68994V9.89994H120.828V10.7799H120.712Z" fill="white"></path><path d="M126.955 14.9598H125.799V12.0998C125.799 11.2198 125.452 10.7798 124.758 10.7798C124.18 10.7798 123.833 10.9998 123.602 11.5498C123.602 11.6598 123.602 11.7698 123.602 11.9898V14.9598H122.446V7.58984H123.602V10.6698C123.949 10.1198 124.527 9.78984 125.221 9.78984C125.683 9.78984 126.146 9.89984 126.377 10.2298C126.724 10.5598 126.955 11.2198 126.955 11.8798V14.9598Z" fill="white"></path><path d="M133.312 12.2099C133.312 12.4299 133.312 12.5399 133.312 12.7599H129.843C129.843 13.3099 130.075 13.6399 130.306 13.8599C130.653 14.0799 131 14.1899 131.462 14.1899C132.04 14.1899 132.503 14.0799 132.85 13.9699L133.081 14.7399C132.618 14.9599 132.04 15.0699 131.346 15.0699C130.537 15.0699 129.843 14.8499 129.381 14.4099C128.918 13.9699 128.687 13.3099 128.687 12.5399C128.687 11.7699 128.918 11.1099 129.381 10.6699C129.843 10.1199 130.421 9.8999 131.231 9.8999C132.04 9.8999 132.618 10.1199 132.965 10.6699C133.196 10.9999 133.312 11.5499 133.312 12.2099ZM132.271 11.8799C132.271 11.5499 132.156 11.2199 132.04 10.9999C131.809 10.6699 131.578 10.5599 131.115 10.5599C130.768 10.5599 130.421 10.6699 130.19 10.9999C129.959 11.2199 129.843 11.5499 129.843 11.8799H132.271Z" fill="white"></path></svg>