<svg width="56" height="56" viewBox="0 0 56 56" fill="none" xmlns="http://www.w3.org/2000/svg">
<g clip-path="url(#clip0)">
<path d="M46.1752 42.9226L47.682 42.2398L37.44 19.64L35.9332 20.3228L33.5802 15.1312C34.2349 14.1046 34.6159 12.8867 34.6159 11.5788C34.6159 8.80231 32.905 6.42679 30.4805 5.44514V0H25.5182V5.44525C23.0937 6.42701 21.3828 8.80253 21.3828 11.5789C21.3828 12.8867 21.7637 14.1048 22.4185 15.1313L20.0655 20.323L18.5587 19.6402L8.31679 42.2398L9.82355 42.9226L5.72656 51.9625L6.62093 56.0001L10.2465 54.011L14.3435 44.9708L15.85 45.6536L26.092 23.0541L24.5855 22.3713L26.551 18.0345C27.0175 18.1387 27.5018 18.1954 27.9996 18.1954C28.4973 18.1954 28.9816 18.1386 29.4481 18.0345L31.4136 22.3713L29.9071 23.0541L40.1491 45.6536L41.6556 44.9708L45.7526 54.011L49.3782 56.0001L50.2725 51.9625L46.1752 42.9226ZM27.9993 14.0601C26.6291 14.0601 25.5182 12.9494 25.5182 11.5789C25.5182 10.2084 26.6291 9.09773 27.9993 9.09773C29.3696 9.09773 30.4805 10.2084 30.4805 11.5789C30.4805 12.9494 29.3696 14.0601 27.9993 14.0601Z" fill="#D6E2EF"/>
<path d="M47.6812 42.2404L46.1744 42.9233L41.6548 44.9714L40.1483 45.6543L29.9062 23.0548L31.4128 22.3719L35.9324 20.3235L37.4392 19.6406L47.6812 42.2404Z" fill="#CDD8E5"/>
<path d="M8.31491 42.2404L9.82167 42.9233L14.3413 44.9714L15.8478 45.6543L26.0898 23.0548L24.5833 22.3719L20.0637 20.3235L18.5569 19.6406L8.31491 42.2404Z" fill="#CDD8E5"/>
<path d="M28 16.1094C30.4939 16.1094 32.5156 14.0877 32.5156 11.5938C32.5156 9.09984 30.4939 7.07812 28 7.07812C25.5061 7.07812 23.4844 9.09984 23.4844 11.5938C23.4844 14.0877 25.5061 16.1094 28 16.1094Z" stroke="#3983E4" stroke-width="4"/>
<path d="M28 18.1563C26.2595 18.1563 24.5903 17.4649 23.3596 16.2342C22.1289 15.0035 21.4375 13.3343 21.4375 11.5938C21.4375 9.85329 22.1289 8.18408 23.3596 6.95337C24.5903 5.72266 26.2595 5.03125 28 5.03125V9.07814C24.8828 9.18752 24.4453 13.7813 28 14.1094V18.1563Z" fill="#418CEF"/>
</g>
<defs>
<clipPath id="clip0">
<rect width="56" height="56" fill="white"/>
</clipPath>
</defs>
</svg>
