<svg width="56" height="56" viewBox="0 0 56 56" fill="none" xmlns="http://www.w3.org/2000/svg">
<g clip-path="url(#clip0)">
<path d="M38.7693 27.3557V22.2583L33.7436 12.207H22.2564L17.2307 22.2583V27.3557H0V40.2788L17.2307 40.2787V43.7967H38.7692V40.2787L56 40.2788V27.3557H38.7693ZM8.61536 35.9712H4.30773V31.6634H8.61547L8.61536 35.9712ZM17.2307 35.9709L12.923 35.971V31.6633H17.2307V35.9709ZM28 33.7455C26.414 33.7455 25.1283 32.4598 25.1283 30.8737C25.1283 29.2877 26.414 28.0019 28 28.0019C29.586 28.0019 30.8718 29.2876 30.8718 30.8736C30.8718 32.4597 29.586 33.7455 28 33.7455ZM43.0769 35.9712L38.7692 35.971V31.6635H43.0769V35.9712ZM51.6923 35.9712H47.3845V31.6634H51.6923V35.9712Z" fill="#CCD7E4"/>
<path d="M17.2305 22.2583L22.2561 12.207H27.9998V28.0019C26.4137 28.0019 25.128 29.2877 25.128 30.8737C25.128 32.4598 26.4137 33.7455 27.9998 33.7455L27.9997 43.7967H17.2305V40.2787V35.9709V31.6633V27.3557V22.2583Z" fill="#D6E2EF"/>
<circle cx="27.6172" cy="31.1172" r="4.33594" stroke="#418CEF" stroke-width="2"/>
<path fill-rule="evenodd" clip-rule="evenodd" d="M43.1484 31.6641V35.9297H38.7734V31.6641H43.1484Z" fill="#418CEF"/>
<path d="M56.0547 27.4531H38.8281V40.3594H56.0547V27.4531Z" fill="#3983E4"/>
<path fill-rule="evenodd" clip-rule="evenodd" d="M0 27.3984H17.2266V31.6641H12.8516V35.9297H17.2266V40.3047H0V27.3984ZM4.26562 31.6641V35.9297H8.64062V31.6641H4.26562Z" fill="#418CEF"/>
<path d="M55.9453 27.3984H38.7188V31.6914V35.9844V40.3047L47.332 33.8516V31.6595H50.2578L55.9453 27.3984Z" fill="#418CEF"/>
<path d="M38.7188 35.9844V31.7188H43.0938V35.9844H38.7188Z" fill="white"/>
<path d="M47.3594 35.9844V31.7188H51.7344V35.9844H47.3594Z" fill="white"/>
</g>
<defs>
<clipPath id="clip0">
<rect width="56" height="56" fill="white"/>
</clipPath>
</defs>
</svg>
