<svg width="56" height="56" viewBox="0 0 56 56" fill="none" xmlns="http://www.w3.org/2000/svg">
<g clip-path="url(#clip0)">
<path d="M53.76 23.5209H56V19.0409H53.76C50.8398 19.0409 48.35 20.9137 47.4253 23.5209H43.3067V19.0409L38.8267 16.0542H29.8667V11.5742H13.44V16.0542H4.48L0 19.0409V35.4676H2.62391C2.37617 36.1684 2.24 36.9219 2.24 37.7076C2.24 41.4192 5.24858 44.4276 8.96 44.4276H34.3467C38.0582 44.4276 41.0667 41.4192 41.0667 37.7076C41.0667 36.9219 40.9306 36.1684 40.6829 35.4676H43.3067V28.0009H47.4253C48.35 30.6081 50.8398 32.4809 53.76 32.4809H56V28.0009H53.76C52.5248 28.0009 51.52 26.9961 51.52 25.7609C51.52 24.5258 52.5247 23.5209 53.76 23.5209ZM7.4667 23.5209H19.4134V28.0009H7.4667V23.5209ZM8.96 39.9476C7.72297 39.9476 6.72 38.9447 6.72 37.7076C6.72 36.4706 7.72297 35.4676 8.96 35.4676C10.197 35.4676 11.2 36.4706 11.2 37.7076C11.2 38.9447 10.197 39.9476 8.96 39.9476ZM21.6533 39.9476C20.4163 39.9476 19.4133 38.9447 19.4133 37.7076C19.4133 36.4706 20.4163 35.4676 21.6533 35.4676C22.8905 35.4676 23.8933 36.4706 23.8933 37.7076C23.8933 38.9447 22.8905 39.9476 21.6533 39.9476ZM23.8933 23.5209H35.84V28.0009H23.8933V23.5209ZM34.3467 39.9476C33.1098 39.9476 32.1067 38.9447 32.1067 37.7076C32.1067 36.4706 33.1098 35.4676 34.3467 35.4676C35.584 35.4676 36.5867 36.4706 36.5867 37.7076C36.5867 38.9447 35.5838 39.9476 34.3467 39.9476Z" fill="#CCD7E4"/>
<path d="M53.76 23.5209H56V19.0409H53.76C50.8398 19.0409 48.35 20.9137 47.4253 23.5209H43.3067V19.0409L38.8267 16.0542H29.8667V11.5742H13.44V16.0542H4.48L0 19.0409V35.4676H2.62391C2.37617 36.1684 2.24 36.9219 2.24 37.7076C2.24 41.4192 5.24858 44.4276 8.96 44.4276H34.3467C38.0582 44.4276 41.0667 41.4192 41.0667 37.7076C41.0667 36.9219 40.9306 36.1684 40.6829 35.4676H43.3067V28.0009H47.4253C48.35 30.6081 50.8398 32.4809 53.76 32.4809H56V28.0009H53.76C52.5248 28.0009 51.52 26.9961 51.52 25.7609C51.52 24.5258 52.5247 23.5209 53.76 23.5209ZM7.4667 23.5209H19.4134V28.0009H7.4667V23.5209ZM8.96 39.9476C7.72297 39.9476 6.72 38.9447 6.72 37.7076C6.72 36.4706 7.72297 35.4676 8.96 35.4676C10.197 35.4676 11.2 36.4706 11.2 37.7076C11.2 38.9447 10.197 39.9476 8.96 39.9476ZM21.6533 39.9476C20.4163 39.9476 19.4133 38.9447 19.4133 37.7076C19.4133 36.4706 20.4163 35.4676 21.6533 35.4676C22.8905 35.4676 23.8933 36.4706 23.8933 37.7076C23.8933 38.9447 22.8905 39.9476 21.6533 39.9476ZM23.8933 23.5209H35.84V28.0009H23.8933V23.5209ZM34.3467 39.9476C33.1098 39.9476 32.1067 38.9447 32.1067 37.7076C32.1067 36.4706 33.1098 35.4676 34.3467 35.4676C35.584 35.4676 36.5867 36.4706 36.5867 37.7076C36.5867 38.9447 35.5838 39.9476 34.3467 39.9476Z" fill="#CCD7E4"/>
<path d="M13.44 16.0542V11.5742H21.6534L21.6533 35.4676C20.4163 35.4676 19.4133 36.4706 19.4133 37.7076C19.4133 38.9447 20.4163 39.9476 21.6533 39.9476V44.4276H8.96C5.24858 44.4276 2.24 41.4192 2.24 37.7076C2.24 36.9219 2.37617 36.1684 2.62391 35.4676H0V19.0409L4.48 16.0542H13.44Z" fill="#D6E2EF"/>
<path d="M7.4667 23.5209H19.4134V28.0009H7.4667V23.5209ZM8.96 39.9476C7.72297 39.9476 6.72 38.9447 6.72 37.7076C6.72 36.4706 7.72297 35.4676 8.96 35.4676C10.197 35.4676 11.2 36.4706 11.2 37.7076C11.2 38.9447 10.197 39.9476 8.96 39.9476ZM21.6533 39.9476C20.4163 39.9476 19.4133 38.9447 19.4133 37.7076C19.4133 36.4706 20.4163 35.4676 21.6533 35.4676C22.8905 35.4677 23.8933 36.4706 23.8933 37.7076C23.8933 38.9447 22.8905 39.9476 21.6533 39.9476Z" fill="white"/>
<path d="M7.4667 23.5209H19.4134V28.0009H7.4667V23.5209ZM8.96 39.9476C7.72297 39.9476 6.72 38.9447 6.72 37.7076C6.72 36.4706 7.72297 35.4676 8.96 35.4676C10.197 35.4676 11.2 36.4706 11.2 37.7076C11.2 38.9447 10.197 39.9476 8.96 39.9476ZM21.6533 39.9476C20.4163 39.9476 19.4133 38.9447 19.4133 37.7076C19.4133 36.4706 20.4163 35.4676 21.6533 35.4676C22.8905 35.4677 23.8933 36.4706 23.8933 37.7076C23.8933 38.9447 22.8905 39.9476 21.6533 39.9476Z" fill="white"/>
<path d="M56.0019 23.523H53.7619C52.5266 23.523 51.5219 24.5278 51.5219 25.763C51.5219 26.9981 52.5267 28.003 53.7619 28.003H56.0019V32.483H53.7619C50.8417 32.483 48.3519 30.6101 47.4272 28.003H43.3086V23.523H47.4272C48.3519 20.9158 50.8417 19.043 53.7619 19.043H56.0019V23.523Z" fill="#418CEF"/>
<path d="M53.758 19.0391H55.998L47.4233 27.9991H43.3047V23.5191H47.4233C48.348 20.9119 50.8378 19.0391 53.758 19.0391Z" fill="#3983E4"/>
</g>
<defs>
<clipPath id="clip0">
<rect width="56" height="56" fill="white"/>
</clipPath>
</defs>
</svg>
