<svg width="40" height="40" viewBox="0 0 40 40" fill="none" xmlns="http://www.w3.org/2000/svg">
<g clip-path="url(#clip0)">
<path d="M1.58305 12H11.8385C12.4857 12 13.0104 12.5247 13.0104 13.1719V14.6666C14.6764 14.6666 16.2324 13.8341 17.1564 12.4478L18.3438 10.6666H25.6562V2.66664H16C16 2.66664 16 2.66656 16 2.66641C14.2927 0.959141 11.9766 0 9.56203 0H1.58305C0.70875 0 0 0.70875 0 1.58305V10.417C0 11.2913 0.70875 12 1.58305 12V12Z" fill="#418CEF"/>
<path d="M12.4479 22.8436L10.6666 21.6563V14.3438H2.66664V24C2.66664 24 2.66656 24 2.66641 24C0.959141 25.7073 0 28.0234 0 30.438V38.417C0 39.2912 0.70875 40 1.58305 40H10.417C11.2913 40 12 39.2912 12 38.417V28.1615C12 27.5143 12.5247 26.9896 13.1719 26.9896H14.6666C14.6666 25.3236 13.8341 23.7676 12.4479 22.8436V22.8436Z" fill="#418CEF"/>
<path d="M38.417 28.0006H28.1615C27.5143 28.0006 26.9896 27.4759 26.9896 26.8287V25.334C25.3236 25.334 23.7676 26.1666 22.8436 27.5528L21.6562 29.334H14.3438V37.334H24V37.3342C25.7073 39.0415 28.0234 40.0006 30.438 40.0006H38.417C39.2912 40.0006 40 39.2919 40 38.4176V29.5837C40 28.7094 39.2912 28.0006 38.417 28.0006V28.0006Z" fill="#418CEF"/>
<path d="M38.417 0H29.5831C28.7088 0 28 0.70875 28 1.58305V11.8385C28 12.4857 27.4753 13.0104 26.8281 13.0104H25.3334C25.3334 14.6764 26.166 16.2324 27.5522 17.1564L29.3334 18.3438V25.6562H37.3334V16H37.3336C39.0409 14.2927 40 11.9766 40 9.56203V1.58305C40 0.70875 39.2913 0 38.417 0V0Z" fill="#418CEF"/>
</g>
<defs>
<clipPath id="clip0">
<rect width="40" height="40" fill="white"/>
</clipPath>
</defs>
</svg>