<svg width="40" height="40" viewBox="0 0 40 40" fill="none" xmlns="http://www.w3.org/2000/svg">
<g clip-path="url(#clip0)">
<path d="M11.2667 13.517L10.7167 10.2337L10.9333 10.017L10.25 9.31699C9.24999 8.30033 8.91665 6.83366 9.34999 5.50033C9.36665 5.45033 9.38332 5.41699 9.39999 5.36699L9.18332 5.33366L7.78332 2.38366C7.58332 1.95033 7.13332 1.66699 6.64999 1.66699C6.16665 1.66699 5.71665 1.95033 5.51665 2.38366L4.13332 5.35033L1.04999 5.83366C0.599986 5.90033 0.216653 6.23366 0.0666526 6.68366C-0.0833474 7.11699 0.0333193 7.61699 0.366653 7.95033L2.63332 10.267L2.09999 13.5503C2.03332 14.0337 2.23332 14.5003 2.61665 14.767C2.83332 14.917 3.08332 15.0003 3.33332 15.0003C3.54999 15.0003 3.76665 14.9503 3.94999 14.8503L6.68332 13.317L9.43332 14.817C9.84999 15.0503 10.3667 15.017 10.7667 14.7503C11.15 14.467 11.35 14.0003 11.2667 13.517Z" fill="#418CEF"/>
<path d="M39.9334 6.63366C39.7834 6.18366 39.4 5.86699 38.9334 5.80033L35.85 5.33366L34.45 2.38366C34.25 1.95033 33.8 1.66699 33.3167 1.66699C32.8334 1.66699 32.3834 1.95033 32.1834 2.38366L30.8 5.35033L30.6167 5.38366C30.6167 5.40033 30.6334 5.41699 30.6334 5.43366C31.0834 6.76699 30.7667 8.23366 29.7834 9.23366L29.0334 10.0003L29.3 10.267L28.7667 13.5503C28.7 14.0337 28.9 14.5003 29.2834 14.767C29.5 14.917 29.75 15.0003 30 15.0003C30.2167 15.0003 30.4334 14.9503 30.6167 14.8503L33.35 13.317L36.1 14.817C36.5167 15.0503 37.0334 15.017 37.4334 14.7503C37.8167 14.467 38.0167 14.0003 37.9334 13.517L37.3834 10.2337L39.65 7.90033C39.9667 7.56699 40.0834 7.08366 39.9334 6.63366Z" fill="#418CEF"/>
<path d="M15.6517 16.6667C15.4 16.6667 15.15 16.5917 14.935 16.44C14.5433 16.1667 14.3417 15.6917 14.4167 15.22L15.1367 10.72L12.025 7.55667C11.6967 7.22167 11.5833 6.73167 11.73 6.28667C11.8767 5.84167 12.26 5.51667 12.7233 5.445L16.9567 4.785L18.8483 0.723333C19.0533 0.283333 19.4917 0.00166667 19.9767 0H19.98C20.4633 0 20.9033 0.278333 21.11 0.715L23.03 4.76333L27.2667 5.395C27.73 5.465 28.115 5.78667 28.2667 6.23C28.4167 6.67333 28.305 7.165 27.98 7.50167L24.89 10.6867L25.64 15.18C25.7183 15.6517 25.5217 16.1283 25.13 16.405C24.74 16.6833 24.2267 16.7133 23.8067 16.4817L20.025 14.4117L16.2583 16.5083C16.07 16.615 15.8617 16.6667 15.6517 16.6667Z" fill="#418CEF"/>
<path d="M6.66665 28.3337C8.5076 28.3337 9.99998 26.8413 9.99998 25.0003C9.99998 23.1594 8.5076 21.667 6.66665 21.667C4.8257 21.667 3.33331 23.1594 3.33331 25.0003C3.33331 26.8413 4.8257 28.3337 6.66665 28.3337Z" fill="#418CEF"/>
<path d="M11.1167 30.6667C9.43333 31.9333 8.33333 33.9667 8.33333 36.25V36.6667H1.25C0.566667 36.6667 0 36.1 0 35.4167V34.5833C0 32.05 2.05 30 4.58333 30H8.75C9.61667 30 10.4333 30.25 11.1167 30.6667Z" fill="#418CEF"/>
<path d="M33.3333 28.3337C35.1743 28.3337 36.6667 26.8413 36.6667 25.0003C36.6667 23.1594 35.1743 21.667 33.3333 21.667C31.4924 21.667 30 23.1594 30 25.0003C30 26.8413 31.4924 28.3337 33.3333 28.3337Z" fill="#418CEF"/>
<path d="M40 34.5833V35.4167C40 36.1 39.4333 36.6667 38.75 36.6667H31.6667V36.25C31.6667 33.9667 30.5667 31.9333 28.8833 30.6667C29.5667 30.25 30.3833 30 31.25 30H35.4167C37.95 30 40 32.05 40 34.5833Z" fill="#418CEF"/>
<path d="M20 29.167C22.7614 29.167 25 26.9284 25 24.167C25 21.4056 22.7614 19.167 20 19.167C17.2386 19.167 15 21.4056 15 24.167C15 26.9284 17.2386 29.167 20 29.167Z" fill="#418CEF"/>
<path d="M24.5834 31.667H15.4167C12.8884 31.667 10.8334 33.722 10.8334 36.2503V38.7503C10.8334 39.4403 11.3934 40.0003 12.0834 40.0003H27.9167C28.6067 40.0003 29.1667 39.4403 29.1667 38.7503V36.2503C29.1667 33.722 27.1117 31.667 24.5834 31.667Z" fill="#418CEF"/>
</g>
<defs>
<clipPath id="clip0">
<rect width="40" height="40" fill="white"/>
</clipPath>
</defs>
</svg>